<svg xmlns="http://www.w3.org/2000/svg" width="1190" height="1064">
    <path fill-rule="evenodd" fill="#80B7B3" d="M699.769 492.559c4.494 5.88 4.068 14.316-1.309 19.693-4.63 5.378-13.814 6.308-19.694 1.309l-490.13 490.131-2.829-2.829 490.13-490.13c-4.494-5.88-4.068-14.317 1.309-19.343 5.378-5.728 14.354-6.154 19.694-1.66L1186.363.307l2.829 2.829-489.423 489.423zM800.46 283.252c-5.026 5.027-12.726 5.727-18.513 2.128L3.636 1063.692l-2.829-2.829 778.046-778.046c-5.445-5.883-5.325-15.06.393-20.427 5.718-6.069 14.895-6.189 21.004-.744l201.113-201.339 2.829 2.829L802.587 264.74c3.599 5.787 2.899 13.486-2.127 18.512z"/>
</svg>
